<svg xmlns="http://www.w3.org/2000/svg" xmlns:xlink="http://www.w3.org/1999/xlink" viewBox="0 0 38.87 38.85"><defs><style>.cls-1{fill:url(#Degradado_sin_nombre_18);}.cls-2{fill:url(#Degradado_sin_nombre_18-2);}.cls-3{fill:url(#Degradado_sin_nombre_18-3);}</style><linearGradient id="Degradado_sin_nombre_18" x1="19.43" y1="-5.08" x2="19.43" y2="52.6" gradientUnits="userSpaceOnUse"><stop offset="0" stop-color="#8efdee"/><stop offset="0.13" stop-color="#88f2ee"/><stop offset="0.35" stop-color="#78d6ed"/><stop offset="0.64" stop-color="#5ea7ec"/><stop offset="0.98" stop-color="#3a67ea"/><stop offset="1" stop-color="#3863ea"/></linearGradient><linearGradient id="Degradado_sin_nombre_18-2" x1="19.42" y1="-5.08" x2="19.42" y2="52.6" xlink:href="#Degradado_sin_nombre_18"/><linearGradient id="Degradado_sin_nombre_18-3" x1="29.76" y1="-5.08" x2="29.76" y2="52.6" xlink:href="#Degradado_sin_nombre_18"/></defs><g id="Layer_2" data-name="Layer 2"><g id="OBJECTS"><path class="cls-1" d="M20.12,38.83c-2.85,0-4.79.05-6.72,0a23.79,23.79,0,0,1-5.19-.5,10.26,10.26,0,0,1-5.55-3.38A10.93,10.93,0,0,1,.26,29,43.65,43.65,0,0,1,0,24c0-3.28,0-6.56,0-9.84A32,32,0,0,1,.33,9.27,10.22,10.22,0,0,1,4.68,2.08,10.88,10.88,0,0,1,9.73.27C13.68-.14,17.64.05,21.6,0,23.29,0,25,0,26.67.08A17,17,0,0,1,32,1,10,10,0,0,1,36.57,4.4a11,11,0,0,1,2.06,5.82c.38,5,.19,10.09.18,15.14A23.87,23.87,0,0,1,38.45,30a10.53,10.53,0,0,1-3.06,5.81,10.2,10.2,0,0,1-4.8,2.53,19.79,19.79,0,0,1-3.35.41C24.57,38.89,21.89,38.8,20.12,38.83Zm15.14-19.4c0-2.39,0-4.78-.07-7.17a14.62,14.62,0,0,0-.45-3.54,6.84,6.84,0,0,0-1.88-3.11,7.51,7.51,0,0,0-4.59-1.83c-1.82-.18-3.65-.18-5.48-.19-3.12,0-6.24,0-9.36.05A25.79,25.79,0,0,0,9.7,3.9,6.81,6.81,0,0,0,5.28,6.39a8.1,8.1,0,0,0-1.52,4.3c-.15,1.5-.15,3-.17,4.51,0,3.77,0,7.55.06,11.33A15,15,0,0,0,4,29.79a6.74,6.74,0,0,0,2.33,3.77,7.62,7.62,0,0,0,3.93,1.51,38.7,38.7,0,0,0,4.44.2c3.87,0,7.73.06,11.59-.06a19.37,19.37,0,0,0,3-.26,7,7,0,0,0,4-2.09,7.18,7.18,0,0,0,1.69-3.57,30.07,30.07,0,0,0,.31-4.83C35.3,22.79,35.26,21.11,35.26,19.43Z"/><path class="cls-2" d="M19.38,29.42a10,10,0,1,1,10-10A10,10,0,0,1,19.38,29.42Zm.05-3.58A6.41,6.41,0,1,0,13,19.47,6.4,6.4,0,0,0,19.43,25.84Z"/><path class="cls-3" d="M32.12,9.09a2.35,2.35,0,0,1-2.34,2.37,2.37,2.37,0,1,1,0-4.74A2.31,2.31,0,0,1,32.12,9.09Z"/></g></g></svg>