<svg xmlns="http://www.w3.org/2000/svg" xmlns:xlink="http://www.w3.org/1999/xlink" viewBox="0 0 34.74 34.74"><defs><style>.cls-1{fill:url(#Degradado_sin_nombre_18);}.cls-2{fill:url(#Degradado_sin_nombre_18-2);}.cls-3{fill:url(#Degradado_sin_nombre_18-3);}</style><linearGradient id="Degradado_sin_nombre_18" x1="4.05" y1="-15.46" x2="4.05" y2="56.16" gradientUnits="userSpaceOnUse"><stop offset="0" stop-color="#8efdee"/><stop offset="0.13" stop-color="#88f2ee"/><stop offset="0.35" stop-color="#78d6ed"/><stop offset="0.64" stop-color="#5ea7ec"/><stop offset="0.98" stop-color="#3a67ea"/><stop offset="1" stop-color="#3863ea"/></linearGradient><linearGradient id="Degradado_sin_nombre_18-2" x1="4.05" y1="-15.46" x2="4.05" y2="56.16" xlink:href="#Degradado_sin_nombre_18"/><linearGradient id="Degradado_sin_nombre_18-3" x1="23.74" y1="-15.46" x2="23.74" y2="56.16" xlink:href="#Degradado_sin_nombre_18"/></defs><g id="Layer_2" data-name="Layer 2"><g id="OBJECTS"><polygon class="cls-1" points="0 17.73 0 34.74 8.11 34.74 8.11 16.36 8.11 11.58 0 11.58 0 17.73"/><path class="cls-2" d="M4.05,0A4.06,4.06,0,1,0,8.11,4.05,4.05,4.05,0,0,0,4.05,0Z"/><path class="cls-3" d="M34.57,18.69C34,14.33,32,11.58,26.11,11.58c-3.5,0-5.85,1.3-6.81,3.13h-.1V11.58H12.74V34.74h6.75V23.26c0-3,.57-6,4.32-6s4,3.46,4,6.16V34.74h7V22h0A28.76,28.76,0,0,0,34.57,18.69Z"/></g></g></svg>