<svg xmlns="http://www.w3.org/2000/svg" xmlns:xlink="http://www.w3.org/1999/xlink" viewBox="0 0 43.05 52.96"><defs><style>.cls-1{fill:url(#Degradado_sin_nombre_18);}</style><linearGradient id="Degradado_sin_nombre_18" x1="21.52" y1="0.38" x2="21.52" y2="55.9" gradientUnits="userSpaceOnUse"><stop offset="0" stop-color="#8efdee"/><stop offset="0.13" stop-color="#88f2ee"/><stop offset="0.35" stop-color="#78d6ed"/><stop offset="0.64" stop-color="#5ea7ec"/><stop offset="0.98" stop-color="#3a67ea"/><stop offset="1" stop-color="#3863ea"/></linearGradient></defs><g id="Layer_2" data-name="Layer 2"><g id="OBJECTS"><path class="cls-1" d="M30.92,47.11h0V38a10,10,0,0,0-.59-3.52,5.83,5.83,0,0,0-1.51-2.29c1.05-.18,2-.34,3-.54a16.79,16.79,0,0,0,4.25-1.44,11.1,11.1,0,0,0,5.59-5.95,17.65,17.65,0,0,0,.72-11.58,10.66,10.66,0,0,0-2.18-4,.73.73,0,0,1-.15-.81A11,11,0,0,0,39.61.36C39.5.06,39.29,0,39,0A8.88,8.88,0,0,0,35.78.7a23.23,23.23,0,0,0-4.39,2.23,1.06,1.06,0,0,1-.95.16,28.67,28.67,0,0,0-12.93-.28,5,5,0,0,1-4.08-.66A12.9,12.9,0,0,0,8.07.09,5.3,5.3,0,0,0,7.32,0L6.73.21a3,3,0,0,0-.41,1A12,12,0,0,0,6.19,8,.77.77,0,0,1,6,8.85,11.84,11.84,0,0,0,3.2,16.58a20.58,20.58,0,0,0,.92,6.8c1.46,4.4,4.63,6.92,9,8.13a25.89,25.89,0,0,0,4.29.79,8.23,8.23,0,0,0-1.06,1.33A6.14,6.14,0,0,0,15.56,36a.65.65,0,0,1-.48.61A6.68,6.68,0,0,1,6.27,33.8a6.26,6.26,0,0,0-4.14-3,3.13,3.13,0,0,0-1.69.07c-.48.18-.57.48-.26.9a2.84,2.84,0,0,0,.82.72,9.52,9.52,0,0,1,3.72,4.63,7.06,7.06,0,0,0,6.47,4.48,13.4,13.4,0,0,0,4.08-.34c0,1.88,0,4,0,5.81,0,0,.09,5.85,7.78,5.85S30.92,47.11,30.92,47.11Z"/></g></g></svg>